<?xml version="1.0" encoding="utf-8"?>
<!-- Generator: Adobe Illustrator 18.1.1, SVG Export Plug-In . SVG Version: 6.00 Build 0)  -->
<svg version="1.0"
	 id="svg2" xmlns:svg="http://www.w3.org/2000/svg" xmlns:rdf="http://www.w3.org/1999/02/22-rdf-syntax-ns#" xmlns:dc="http://purl.org/dc/elements/1.1/" xmlns:sodipodi="http://sodipodi.sourceforge.net/DTD/sodipodi-0.dtd" xmlns:inkscape="http://www.inkscape.org/namespaces/inkscape" xmlns:cc="http://web.resource.org/cc/" inkscape:version="0.45.1" sodipodi:version="0.32" sodipodi:docname="Human body silhouette.svg" inkscape:output_extension="org.inkscape.output.svg.inkscape" sodipodi:docbase="D:\DougsDocs\Wikipedia"
	 xmlns="http://www.w3.org/2000/svg" xmlns:xlink="http://www.w3.org/1999/xlink" x="0px" y="0px" viewBox="-378 536.5 84.2 119.1"
	 enable-background="new -378 536.5 84.2 119.1" xml:space="preserve">
<sodipodi:namedview  height="10%" width="10%" id="base" gridtolerance="10000" bordercolor="#666666" guidetolerance="10" borderopacity="1.0" inkscape:cx="444.95671" objecttolerance="10" inkscape:cy="1188.8382" inkscape:zoom="0.35" class="manbody" pagecolor="#ffffff" inkscape:window-y="2" inkscape:window-x="-4" inkscape:window-height="1113" inkscape:window-width="748" inkscape:current-layer="layer1" inkscape:pageshadow="2" inkscape:pageopacity="0.0" inkscape:document-units="px">
	</sodipodi:namedview>
<g id="layer1" transform="translate(41.500029,630.92312)" inkscape:label="Layer 1" inkscape:groupmode="layer">
	<path id="path2180" fill="#E3BBA3" fill-opacity="0.375" d="M470.7,2103.8c-1.1-0.5-2.7-1.9-3.4-3.2c-0.3-0.5-0.8-1.6-1-2.6
		s-0.8-2.3-1.2-3.1c-0.9-1.8-1.7-6.8-2.1-12.7c-0.2-3.9-0.3-4.6-1.2-7c-0.5-1.5-1.1-3.4-1.3-4.2s-0.5-2-0.6-2.6
		c-0.1-0.6-0.3-2.1-0.4-3.5c-0.1-1.9-0.4-3-1.1-4.9c-0.5-1.3-1-3.2-1.1-4.1c-0.1-1-0.5-2.4-1.1-3.7c-1.3-2.9-1.4-4.4-0.6-7.1
		c1.2-3.9,1.1-9.6-0.3-18.6c-0.7-4.5-2.7-15.7-3.5-19.3c-1.1-5.1-1.4-6.3-4-14.8c-2.3-7.2-2.4-8.7-3.3-34.8l-0.2-6.4l-1.3-3.5
		c-0.7-1.9-1.8-4.3-2.2-5.3c-1.4-2.8-3.3-8.5-3.9-11.7c-0.4-2-0.5-4-0.5-6.5c0-2-0.1-4.6-0.2-5.9s-0.4-4.3-0.5-6.8
		c-0.2-2.5-0.5-6-0.8-7.9c-0.6-4.4-3.4-18-5.4-26c-0.9-3.8-1.7-7.9-2.1-10.6c-0.3-2.4-0.7-4.6-0.9-4.8c-0.2-0.3-0.6-0.2-2,0.8
		c-1.4,0.9-2.1,1.2-3.3,1.3c-0.9,0.1-1.9,0.1-2.3-0.1c-0.5-0.2-0.7-0.2-0.8,0c-0.1,0.2-0.4,2.6-0.8,5.4c-0.4,2.8-1.1,6.9-1.6,9.1
		c-1.2,5.5-2.6,14.4-2.9,18.5c-0.1,1.9-0.4,4.5-0.6,6c-0.4,2.7-0.9,14.8-0.9,21c0,5.5-0.3,8-1.6,11.9c-0.6,1.9-1.6,4.6-2.2,6
		c-0.6,1.4-1.4,3.7-1.8,5.2c-1,3.7-1,4.5,0.3,22.2c0.1,2,0.3,5.3,0.3,7.4c0,5.4-0.4,7.9-3.6,21c-0.5,2.3-1.2,5.1-1.4,6.4
		c-0.2,1.3-0.7,3.4-0.9,4.7c-0.3,1.3-0.6,3.1-0.7,4c-0.1,0.8-0.4,2.8-0.7,4.4c-0.7,3.8-1.3,10.7-1.3,14.8c0,2.8,0.1,3.8,0.6,5.9
		c1,3.8,1,5.5,0.4,7.7c-2,6.4-2.3,8.4-2.6,14.2c-0.2,4.4-0.3,5.3-0.9,7.2c-0.4,1.2-1,2.7-1.3,3.3c-0.8,1.6-1.2,4.4-1.2,8.7
		c0,2-0.1,4-0.2,4.5c-0.1,0.5-0.6,2-0.9,3.5c-0.4,1.5-0.9,3.1-1.2,3.7c-0.3,0.6-0.7,1.6-0.9,2.3c-0.2,0.7-0.8,1.9-1.3,2.6
		c-0.8,1.1-1.1,1.4-2.2,1.7c-2.7,0.8-4.9,0.3-6-1.3c-0.6-0.9-0.4-3.7,0.4-5.2c0.4-0.9,0.5-1.1,0.2-1.1c-0.4,0-2,2.8-2.4,4.2
		c-0.2,0.6-0.4,1.2-0.5,1.3c-0.3,0.5-1.8,1.1-2.6,1.1c-1.1,0-2.4-1-2.7-2c-0.2-0.7-0.4-0.8-0.9-0.8c-0.9,0-1.8-0.7-2.2-1.7
		c-0.2-0.6-0.6-0.9-1.1-1c-0.9-0.2-1.3-1-1.3-2.5c0-0.6-0.2-1.1-0.4-1.3c-0.8-0.6-1.6-3-1.6-4.4c0-1.6,1.4-8,2-8.9
		c0.2-0.4,0.7-0.9,1-1.3c0.3-0.4,1.1-1.6,1.6-2.7s1.8-3,2.8-4.2c1.9-2.3,2.4-3,4-5.6c0.7-1.1,1.1-2.2,1.3-3.2
		c0.2-1.1,0.8-2.7,1.9-4.9c1.8-3.6,2-4.3,1.6-7.5c-0.2-1.7-0.1-2.2,1.5-8.2c0.6-2.1,0.5-4.1-0.6-12.2c-0.6-4.1-1.3-9.9-1.6-12.9
		c-0.3-3-0.8-7.5-1-9.9c-0.3-2.4-0.6-5.6-0.8-7s-0.7-5.6-1.2-9.2c-0.8-5.9-0.9-7.1-0.9-12.6c0-5.8,0-6.7,1.1-16.3
		c0.3-3,0.8-5.9,1.8-11c0.8-4,0.8-4.2,0.6-8.3c-0.1-2.3-0.2-7.6-0.2-11.8c0-8.3,0.1-7.2-1.7-12.7c-0.9-2.7-2-8.6-3.1-17
		c-0.3-2.2-0.8-5.7-1.2-7.8c-0.3-2.1-0.6-4.1-0.6-4.6c0-0.5-0.3-2.4-0.6-4.2c-0.3-1.8-0.9-5.1-1.2-7.2c-0.3-2.1-0.7-5-0.9-6.4
		c-1.6-10.4-3.7-32-3.3-33.2c0.1-0.2,0.2-4.1,0.3-8.8c0.2-14.7,1.1-22.3,3-27.6c1.6-4.3,2.1-8.5,2.2-17.8c0.1-6.2,0.1-6.5,2.2-16
		c1.5-6.8,1.9-10.3,1.9-19.7c0-6.6-0.3-11-1.2-16.4c-0.8-5.1-1-5.2-1.6-0.8c-0.4,2.6-2.7,12-4.4,18.3c-0.6,2.2-0.7,2.9-0.7,7.2
		c0,2.6-0.2,5.3-0.3,5.9c-0.4,1.6-2.8,8.6-3.4,9.9c-0.8,1.8-2.5,5.8-3.3,8.1c-3.6,10.1-6.9,18.5-9.6,24.2
		c-3.5,7.6-5.2,11.8-8.6,21.7c-2.2,6.3-3.8,10.8-4.1,11.7c-0.1,0.3-0.3,1-0.3,1.7c-0.1,0.6-0.3,2-0.4,3.1c-0.2,1.1-0.2,2.7-0.1,3.8
		c0.4,4.5,0.5,3.8-1.3,13.2c-1.1,5.7-1.1,5.1,0.7,14.3c0.3,1.4,0.5,3.9,0.6,5.5c0.1,2.9,0.1,2.9-0.6,3.5c-0.4,0.3-1,0.6-1.5,0.6
		c-1.3,0-1.7-0.9-2.3-4.8c-0.3-2-0.8-4.4-1.1-5.3c-0.3-1-0.7-2.7-0.9-4c-0.5-2.7-0.9-3.2-1.8-2.2c-0.3,0.4-0.7,1.1-0.7,1.5
		c-0.1,0.4-0.2,4-0.3,8c-0.2,10-0.4,11.8-1.2,12.6c-0.8,0.8-2.2,0.9-3.1,0.2c-0.7-0.5-0.8-0.9-0.4-4.9c0.2-2,0.2-3.3-0.2-6.4
		c-0.4-3.1-0.4-4.1-0.1-5.8c0.4-2.3,0.4-3.9,0.1-3.9c-0.1,0-0.3,0.7-0.4,1.6s-0.3,2.7-0.4,4c-0.2,1.3-0.3,5.5-0.4,9.2
		c-0.1,5.5-0.2,6.9-0.5,7.3c-0.7,1.1-2.9,1.1-3.9,0.1c-0.5-0.5-0.5-1.1-0.7-5.6c-0.3-6.3-0.3-10.5,0-12.4c0.1-1,0.1-1.4-0.1-1.3
		c-0.1,0.1-0.3,0.5-0.3,0.9c0,0.4-0.1,0.8-0.3,0.9c-0.2,0.1-0.3,2.3-0.3,5.8c0,6-0.2,7.1-1.2,7.6c-0.9,0.5-2,0.3-2.9-0.5l-0.8-0.7
		l-0.2-5.7c-0.1-3.1-0.1-6.6,0.1-7.6c0.1-1.1,0.5-4,0.8-6.5c0.6-4.9,0.9-9.9,0.6-9.9c-0.2,0-2.8,2.2-4.6,3.9c-1.8,1.7-4,2.5-7.2,2.5
		c-2.1,0-3-0.5-3-1.6c0-0.5,0.2-0.8,1-1.1c2.6-1.1,3.1-1.4,3.1-1.6c0-0.1,1.2-1.5,2.7-3c1.5-1.5,3.2-3.4,3.9-4.3
		c2-2.7,2.2-2.9,2.5-2.9c0.2,0,0.6-0.3,0.9-0.7c0.3-0.4,1-1,1.7-1.5c2.8-2,6.8-5.6,7.5-6.7c1.2-2,1.6-3.1,1.6-3.8
		c0-0.7,0.4-2.2,1.8-7.4c0.3-1,0.7-2.7,1-3.7c0.3-1,0.7-2.9,0.9-4.1s0.8-3.3,1.3-4.7c1.4-3.9,2.1-7.4,4.1-20
		c1.4-8.7,2.1-13,2.8-16.1c0.3-1.6,1-4.9,1.4-7.4c0.8-4.3,2.2-10,3.4-13.2c0.3-0.8,1-2.7,1.5-4.2s1.3-3.6,1.7-4.5
		c2.2-4.8,3.1-8.4,3.9-16c0.3-2.8,0.8-7.4,1.2-10.2c1.8-14.3,1.8-14.7,1.7-24.5c-0.1-14.1,0.3-19.2,2.4-28.2
		c1.2-5.2,2.5-9.1,3.4-10.5c1.8-2.8,4.3-4.7,8-6.1c2-0.8,2.8-1.2,5.4-2.7c0.8-0.5,2.5-1.3,3.9-1.8c6-2.2,20-9,23.6-11.3
		c2.5-1.6,4.1-3.2,4.6-4.6c0.6-1.3,1.1-5.4,1.3-9c0.1-3.1,0.1-3.3-0.6-4.9c-1.5-3.6-2.4-6.6-3.2-11.4c-0.4-2.5-0.5-2.7-1-2.7
		c-0.2,0-0.8-0.3-1.3-0.7c-1.3-0.9-2.7-3.9-3.6-7.7c-0.8-3.3-0.8-4.6-0.3-6.6c0.4-1.5,0.7-2,1.6-2.8c0.5-0.4,0.6-0.6,0.4-1.5
		c-0.1-0.6-0.3-1.3-0.4-1.5s-0.4-1.9-0.5-3.7c-0.2-1.8-0.4-3.5-0.6-3.9c-0.2-0.4-0.2-1.3,0-3.1c0.2-1.6,0.2-2.5,0-2.6
		c-0.3-0.1-0.3-1,0-1.2c0.1-0.1,0.3-0.7,0.4-1.4c0.1-0.7,0.3-1.4,0.4-1.7c0.1-0.2,0.2-0.8,0.2-1.1s0.4-1.3,0.8-2
		c0.4-0.7,1.2-2,1.6-2.8c0.8-1.3,3-4.2,5.2-6.7c1.1-1.2,3.3-2.9,4.1-3.1c0.3-0.1,0.6-0.3,0.6-0.4c0-0.1,0.1-0.2,0.3-0.2
		c0.2,0,0.7,0,1.1-0.1c0.6-0.1,0.8-0.3,0.7-0.7c-0.1-0.4,0.1-0.5,1.1-0.7c0.7-0.1,1.6-0.3,2.1-0.5s1-0.3,1.1-0.2
		c0.1,0.1,0.4,0,0.6-0.1c0.2-0.2,0.9-0.3,1.6-0.3s1.3-0.2,1.4-0.3c0.1-0.2,0.6-0.1,1.4,0.2c1.5,0.5,2.3,0.6,2.4,0.1
		c0.1-0.2,0.3-0.2,0.7,0.1c0.6,0.4,1.6,0.4,2.5,0c0.2-0.1,0.7-0.2,1.2-0.2s1.2-0.1,1.6-0.2c0.6-0.1,0.8-0.1,0.7,0.1
		c-0.1,0.2,0.3,0.3,1.3,0.3c1.6,0,2.6,0.4,3.6,1.4c0.3,0.3,1.1,0.8,1.7,0.9c0.6,0.2,1.4,0.6,1.7,0.9c0.3,0.3,1.2,0.9,1.9,1.2
		c2.1,1.1,4.1,3.2,7.9,8.4c0.5,0.6,1,1.6,1.2,2s0.5,1.2,0.7,1.6c0.5,1,0.9,3.2,1,5.8c0.1,2.6,0.1,2.3-0.2,7
		c-0.3,4.9-0.7,7.5-1.2,9.1l-0.4,1.2l0.7,0.8c0.7,0.9,1.7,3.7,1.7,4.9c0,1.3-1.2,6.4-2.1,8.6c-0.5,1.3-1.2,2.5-1.7,3
		c-0.9,0.9-1,0.9-2.4,1l-0.8,0l-0.7,3.6c-1.1,5.3-1.1,5.6-1.4,6.4c-0.2,0.8-0.2,4.2,0.1,8.1c0.2,3,1,6.7,1.8,8
		c0.9,1.6,3,3.4,5.4,4.7c9.9,5.4,19.3,10.1,25.1,12.3c4.6,1.8,5.4,2.2,8.6,4.3c3.7,2.4,6.6,4.8,7.8,6.5c2.3,3.1,3.9,8.5,5.3,17.4
		c0.5,3.4,0.6,4.7,0.6,17.6c0.1,13.2,0.3,19.2,1.1,26.6c1.5,13.2,2.2,18.8,3.1,22.2c0.6,2.4,0.7,2.7,2.5,6.9
		c1.6,3.7,4.7,13.1,5.6,16.7c0.3,1.2,0.9,4.5,1.3,7.4c0.4,2.9,1.2,8,1.8,11.4c1,6.2,1.8,11.5,2.3,15.4c0.5,4,1.1,7.1,1.6,9.1
		c0.6,2.2,3.2,10.4,4.5,14.3c0.5,1.4,1.3,3.9,1.7,5.5c1.5,5.3,2.1,6.6,3.8,8.4c0.9,0.9,3.3,3.2,5.4,5c2.3,2.1,4.1,3.8,4.5,4.5
		c0.8,1.4,2.5,3.6,4.2,5.3c0.7,0.7,1.5,1.8,1.7,2.4c0.8,1.5,1.9,2.7,3.5,3.7c1.2,0.8,1.4,1,1.4,1.7c0,1.3-0.9,1.7-3,1.6
		c-2.6-0.2-4.8-1.4-7.7-4.3l-2.4-2.3v1.6c0,1.7,0.1,2.4,1.2,8.4c1.1,6.1,1.1,6.6,1.1,12c0,6-0.2,6.7-1.7,7.4c-0.8,0.4-1,0.3-1.9-0.1
		c-1.3-0.6-1.5-1.4-1.8-6.4c-0.4-6.2-0.6-7.3-1.4-9.5c-0.3-0.9-0.6-2-0.6-2.5c0-0.5-0.1-0.9-0.3-0.9c-0.4,0-0.3,1.6,0.1,3.4
		c0.5,2,0.6,6.9,0.2,10.2c-0.2,1.4-0.3,4-0.3,5.8c0,3.1,0,3.3-0.6,4c-0.8,0.9-2.3,1.2-3.2,0.6c-1.2-0.7-1.3-1.2-1.2-7.2
		c0.1-5.5,0-8.2-0.6-12.8c-0.4-3.8-0.8-3.3-0.6,0.8c0.1,2.4,0.1,3.9-0.1,4.5c-0.4,1.3-0.8,5.1-0.9,9.1c-0.1,3.4-0.1,3.6-0.7,4.1
		c-0.8,0.7-2.7,0.5-3.4-0.4c-0.4-0.5-0.5-1.1-0.3-11.4c0.1-10.6,0.1-11.6-0.6-11.6c-0.1,0-0.2,1-0.2,2.2c0,1.2-0.2,2.9-0.5,3.8
		c-0.2,0.9-0.4,2.1-0.5,2.8c-0.1,2.1-0.4,5.3-0.7,6.3c-0.4,1.6-2.3,1.8-3.4,0.4c-0.7-0.9-0.8-4-0.4-8.1c0.4-4.1,0.4-9.2,0-11
		c-0.2-0.7-0.4-1.3-0.5-1.2c-0.1,0.1-0.2-0.5-0.2-1.2c0-0.7-0.2-1.7-0.3-2.2c-0.9-3.3-1.3-7-1.2-11.9c0.1-4.7,0-5-0.5-6
		c-0.3-0.6-0.6-1.3-0.6-1.5c0-0.4-1.8-4.7-5.7-13.6c-1.1-2.4-2.6-6-3.3-8.1c-0.8-2-2.7-6.7-4.3-10.5c-3.6-8.5-4.3-10.2-7.3-19
		c-2.5-7-3.2-8.9-4.7-12c-0.9-1.9-3.4-8.7-3.9-10.6c-0.2-0.8-0.4-3.1-0.4-6c0-4.2-0.1-5-0.7-7.2c-1.4-5.1-3-11.8-3.7-15.7
		c-0.6-3.4-1.5-10.5-1.5-11.8c0-0.2-0.1-0.4-0.2-0.4c-0.1,0-0.4,1.3-0.7,2.9s-0.8,5-1.3,7.5c-2.4,13.1-2.7,20.5-0.9,29.3
		c2.4,11.8,2.7,14.5,3,23.4c0.1,3.8,0.4,7.4,0.5,7.9s0.3,1.5,0.3,2.1c0,0.8,0.1,1.1,0.5,1.3c0.3,0.1,0.6,0.6,0.8,1
		c0.3,0.8,1.1,4.5,1.2,5.8c0,0.4,0.3,1.3,0.5,2c0.2,0.7,0.3,1.2,0.2,1.2c-0.1,0,0,0.2,0.1,0.3c0.2,0.2,0.3,0.7,0.3,1.1
		c0,0.4,0.1,1.3,0.3,2c1.2,5.1,1.5,7.1,1.8,9.9c0.3,3.7,0.7,6.6,1.2,9.7c0.2,1.2,0.5,4,0.8,6.3c0.4,3.6,0.4,4.7,0.1,8.7
		c-0.5,6.8-1.7,20.3-2.5,26c-0.4,2.7-0.9,8.2-1.1,12.2c-0.6,8.4-2.6,28.1-3.2,30.9c-0.2,1-0.6,2.6-0.9,3.4
		c-1.5,4.7-2.1,14.2-1.6,24.3c0.3,5.7,0.5,7,2.4,13.6c1.2,4,2.9,12.7,3.4,17c0.7,6.1,0.5,16.1-0.5,26.1c-0.4,3.9-0.8,11.9-1,19.5
		c-0.1,2.5-0.2,6.1-0.4,8.1c-0.9,12.1-1,17.4-0.4,19c0.2,0.6,0.3,1.1,0.2,1.2c-0.1,0.1,0.1,0.4,0.3,0.8c0.9,1.4,1.4,4,1.6,8.1l0.1,4
		l1.2,1.5c1.2,1.6,3.4,5.6,4.4,8.2c0.3,0.8,0.8,1.7,0.9,1.9c0.2,0.2,0.3,0.5,0.3,0.6s0.5,0.9,1.2,1.6c1.6,1.9,4.7,6.5,5.3,7.8
		c0.3,0.6,0.8,1.4,1.1,1.8c1.6,1.9,2.2,4.1,2.2,7.8c0,2.4-0.1,2.8-0.7,4.1c-0.4,0.8-1,1.5-1.3,1.7c-0.7,0.3-0.9,1.1-1,3
		c0,1.5-0.8,2.4-1.7,2.1c-0.6-0.1-0.6-0.1-0.6,0.9c0,1.6-0.5,2.2-1.8,2.2c-0.9,0-1,0.1-1.1,0.7c-0.2,1.6-3.7,2.6-5,1.3l-0.6-0.5
		l-0.2,0.8C476.5,2103.6,472.6,2104.6,470.7,2103.8z"/>
</g>
</svg>
